<svg 
    id="Ebene_1" 
    data-name="Ebene 1" 
    xmlns="http://www.w3.org/2000/svg" 
    viewBox="0 0 100.96 129.48"
    fill="#fa4b4b">
    <path 
        d="M54.87,34.42a24.94,24.94,0,0,0,2.66-2.5A18.85,18.85,0,0,0,60,28.19c1-2,1.64-4.14,2.49-6.2,1.09-2.65,3.53-3,5.38-.89a5.25,5.25,0,0,1,.64,6.61c-.52.9-1.07,1.77-1.61,2.65L61.3,39.52a5.11,5.11,0,0,1-.75,1.22C57.93,43,59,45.5,60.09,47.81c2.07,4.2,4.41,8.26,6.69,12.49.46-.15,1-.16,1.15-.41,1.31-1.71,2.57-3.45,2.68-5.74s.46-4.78.36-7.15a27.94,27.94,0,0,0-1.07-5.12,5.59,5.59,0,0,1,.45-4.62A2.51,2.51,0,0,1,73.4,36c.69.19,1.38.39,2,.64,2.48,1,3.07,1.92,2.65,4.54a29,29,0,0,0-.44,8.57A7.53,7.53,0,0,0,79.87,46,19.16,19.16,0,0,1,81,42.32a2.89,2.89,0,0,1,3.53-1.77,3.41,3.41,0,0,1,2.82,2.89c.16,1.18.18,2.38.27,3.57.59.14,1,.26,1.51.34,1.07.18,2.17.47,2.28,1.73s.07,2.64-1.21,3.42a6.64,6.64,0,0,1-2.17.89,18.51,18.51,0,0,0-9.39,4.94c-.81.78-1.62,1.55-2.4,2.35a18.31,18.31,0,0,0-3.83,6C70.83,70.6,69,74.42,67.23,78.25a7.11,7.11,0,0,0-.82,3.42c.06,1.66-.16,3.33-.19,5,0,2.16.83,2.83,2.84,2.07,1.48-.56,2.86-1.38,4.32-2,2-.87,2.58-2.56,2.64-4.47.07-2.4.18-4.73,1.41-6.93a11.49,11.49,0,0,0,.63-3,11.46,11.46,0,0,1,.82-3c1.77-3.24,3.93-3.55,6.85-.61,1.39,1.4,1.1,3.25.66,5-.19.75-.53,1.48-.87,2.42,2.37.07,4.49.18,6.25-1.6,1.41-1.43,1.58-3.26,1.91-5a6.53,6.53,0,0,1,1.49-3.44A4,4,0,0,1,102,67.74a7.65,7.65,0,0,1-.38,5.14c-1.53,3.48-3.56,6.54-7.08,8.45a15.23,15.23,0,0,1-5.38,1.81c-2.64.35-5.18,1-6.82,3.42a4.64,4.64,0,0,0-.89,1.68c-.41,2.41-1.94,4.24-3.36,6-1,1.2-2.74,1.78-4.26,2.7-.21,1.65,0,2,1.36,2.57a5.24,5.24,0,0,0,6-1.18c1.12-1,2.2-2.1,3.4-3a7.45,7.45,0,0,1,5.72-1.13,2.41,2.41,0,0,1,2.2,2.44c.2,1.76-.48,3.87-1.58,3.92-2.41.11-3.74,1.95-5.58,2.83.14,1.46.36,2.8.39,4.14a2.43,2.43,0,0,1-2.35,2.79,7.18,7.18,0,0,1-5.89-1.17,10.13,10.13,0,0,0-3.7-1.48c-2-.5-4.06-.84-6.1-1.16-.66-.1-1.62-.18-2,.18-1.61,1.53-3.1,3.12-3.2,5.63a43.4,43.4,0,0,0,1.24,10.16c.29,1.48.62,3,.79,4.46.25,2.09-.9,3.19-3.06,3.23A47.15,47.15,0,0,1,51.2,129a6.19,6.19,0,0,1-4.67-5.14,11.79,11.79,0,0,1,.21-3.56,29.8,29.8,0,0,0,.58-10.44A9.6,9.6,0,0,0,45,104.52a47.91,47.91,0,0,0-6.11-5.62c-1.73-1.4-3.67-2.54-5.53-3.77a4.67,4.67,0,0,0-4.07-.81,25.49,25.49,0,0,1-8.77.81,23.85,23.85,0,0,1-5.63-.94,4.5,4.5,0,0,1-2.58-5.69c1.21-2.82,3.34-3.76,5.95-2.58.47.22.8.73,1.26,1,.69.42,1.43.73,2.15,1.09l.42-.47c-.51-.75-1-1.5-1.53-2.24-1.58-2.21-3.12-4.41-3.74-7.15a9.75,9.75,0,0,0-1.47-3c-1.73-2.66-3.58-5.24-5.29-7.9-1.29-2-2.34-4.18-3.71-6.12-1.23-1.76-2.78-3.29-4.11-5a3.55,3.55,0,0,1-1-2,10.49,10.49,0,0,1,3.45-7.62,3.18,3.18,0,0,1,4-.47c1.46.84,1.83,1.58,1.46,3.64a5.81,5.81,0,0,0,2.58,6.41c.24-.27.5-.42.52-.6.29-2.37.59-4.73.77-7.11a6.66,6.66,0,0,0-.36-2.32c-.53-1.83-1.15-3.64-1.73-5.46,0-.15,0-.31-.07-.47-.35-2.31.36-3.92,2-4.59a4.4,4.4,0,0,1,5,1.81,24.52,24.52,0,0,1,3.19,7.32c1,3.93.18,7.59-.44,11.35-.31,1.88-.89,3.73-1.2,5.61a11,11,0,0,0,2,8.12c1,1.45,2,1.29,2.53-.41,1.07-3.48,2.65-6.85,2.53-10.63a5.81,5.81,0,0,1,.27-2.12c1-2.66,3-3.31,5.57-1.86a6.62,6.62,0,0,1,2.92,3.06,3.23,3.23,0,0,1-.23,3.6c-2.49,3.25-3.4,7.14-4.49,11a21.09,21.09,0,0,1-1.14,3.15,4.17,4.17,0,0,0,.13,3.87c1.46,3,4.11,4.66,6.86,6.08a2.81,2.81,0,0,0,4-2.72c-.14-5.65.35-11.35-1-16.94a11.08,11.08,0,0,1-.32-2.36,21,21,0,0,0-6.41-15c-2.14-2.14-4.51-4.05-6.56-6.27a41.78,41.78,0,0,0-6.94-5.81,24,24,0,0,1-8.81-11.66,28.31,28.31,0,0,1-1.87-10.3,35.44,35.44,0,0,0-.79-8.54A4,4,0,0,1,11.41.94C14,.14,15.88,1.13,16,4.61c0,.55-.23,1.1-.2,1.64.06.94.23,1.86.36,2.84,1.32.32,1.94-.15,2.4-1.34a5.44,5.44,0,0,1,3.92-3.51,3.62,3.62,0,0,1,3.75.86,3.56,3.56,0,0,1,.69,3.79A11.81,11.81,0,0,1,22.43,15c-.57.43-1.17.83-1.74,1.26a4.68,4.68,0,0,0-1.79,5.11A12.61,12.61,0,0,0,24.63,29a1.42,1.42,0,0,0,2.09-.48,9.62,9.62,0,0,0,.8-1.72A34.41,34.41,0,0,0,30.4,13.33c0-4.38,4-7.47,8.65-7.33a3.65,3.65,0,0,1,3.29,4.77,5.32,5.32,0,0,1-1,1.92c-2.63,2.92-3.1,6.72-4.33,10.22-.29.82-.53,1.67-.8,2.51a17.71,17.71,0,0,0-.58,9.18,18.12,18.12,0,0,0,2,4.26c.47.92,1.09,1.76,1.55,2.68a6.56,6.56,0,0,0,3.59,3c1.56.65,3.63-.56,4.6-2.5,1.21-2.44,1-5,.52-7.52-.86-4.6-.12-9,.91-13.48a8.29,8.29,0,0,1,1.55-2.93c1.68-2.24,3.95-2.12,5.74,0s1.4,4.14.59,6.3C56.2,26,55.44,27.48,54.73,29,53.84,30.88,54.25,32.66,54.87,34.42Zm-2.3,59a4.23,4.23,0,0,0,4.13-3.26,18.56,18.56,0,0,0,.57-4.7,68.14,68.14,0,0,1,1.38-14.94c.77-3.39-.08-6.63-1.07-9.81a53.38,53.38,0,0,0-2.22-5.26c-.58-1.35-1.08-2.76-2.47-3.67a14.89,14.89,0,0,0-2.67,6,10,10,0,0,1-1,2.89,10,10,0,0,0-1.11,6.65c.7,5.36,1.23,10.76,1.71,16.15A23.68,23.68,0,0,0,52.57,93.43Z" 
        transform="translate(-1.29 -0.68)"/>
</svg>