<svg id="Ebene_1" 
data-name="Ebene 1" 
xmlns="http://www.w3.org/2000/svg" 
viewBox="0 0 258.68 52.59" 
fill="#a3a6ff"><defs></defs><path d="M232.81,14.37a26.13,26.13,0,0,1-14.67-4.14C215.1,8.5,212.48,7,206.94,7s-8.17,1.5-11.21,3.23a26.12,26.12,0,0,1-14.66,4.14,26.13,26.13,0,0,1-14.67-4.14C163.36,8.5,160.74,7,155.2,7S147,8.5,144,10.23a26.16,26.16,0,0,1-14.67,4.14,26.13,26.13,0,0,1-14.67-4.14C111.62,8.5,109,7,103.46,7s-8.16,1.5-11.2,3.23a26.13,26.13,0,0,1-14.67,4.14,26.12,26.12,0,0,1-14.66-4.14C59.89,8.5,57.27,7,51.73,7s-8.16,1.5-11.2,3.23a26.12,26.12,0,0,1-14.66,4.14A26.13,26.13,0,0,1,11.2,10.23C8.16,8.5,5.54,7,0,7V0A26.16,26.16,0,0,1,14.67,4.14c3,1.74,5.66,3.23,11.2,3.23S34,5.88,37.06,4.14A26.16,26.16,0,0,1,51.73,0,26.09,26.09,0,0,1,66.39,4.14c3,1.74,5.66,3.23,11.2,3.23s8.17-1.49,11.2-3.23A26.16,26.16,0,0,1,103.46,0a26.16,26.16,0,0,1,14.67,4.14c3,1.74,5.66,3.23,11.2,3.23s8.16-1.49,11.2-3.23a28,28,0,0,1,29.33,0c3,1.74,5.67,3.23,11.21,3.23s8.16-1.49,11.2-3.23a28,28,0,0,1,29.33,0c3,1.74,5.67,3.23,11.21,3.23S241,5.88,244,4.14A26.16,26.16,0,0,1,258.68,0V7c-5.54,0-8.16,1.5-11.2,3.23A26.16,26.16,0,0,1,232.81,14.37Z" transform="translate(0 0)"/><path class="cls-1" d="M232.81,27.39a26.13,26.13,0,0,1-14.67-4.14c-3-1.73-5.66-3.23-11.2-3.23s-8.17,1.5-11.21,3.23a28,28,0,0,1-29.33,0c-3-1.73-5.66-3.23-11.2-3.23S147,21.52,144,23.25a26.16,26.16,0,0,1-14.67,4.14,26.13,26.13,0,0,1-14.67-4.14c-3-1.73-5.66-3.23-11.2-3.23s-8.16,1.5-11.2,3.23a26.13,26.13,0,0,1-14.67,4.14,26.12,26.12,0,0,1-14.66-4.14c-3-1.73-5.66-3.23-11.2-3.23s-8.16,1.5-11.2,3.23a26.12,26.12,0,0,1-14.66,4.14A26.13,26.13,0,0,1,11.2,23.25C8.16,21.52,5.54,20,0,20V13a26.07,26.07,0,0,1,14.67,4.15c3,1.73,5.66,3.22,11.2,3.22S34,18.9,37.06,17.17A26.07,26.07,0,0,1,51.73,13a26,26,0,0,1,14.66,4.15c3,1.73,5.66,3.22,11.2,3.22s8.17-1.49,11.2-3.22A26.07,26.07,0,0,1,103.46,13a26.07,26.07,0,0,1,14.67,4.15c3,1.73,5.66,3.22,11.2,3.22s8.16-1.49,11.2-3.22a28,28,0,0,1,29.33,0c3,1.73,5.67,3.22,11.21,3.22s8.16-1.49,11.2-3.22a28,28,0,0,1,29.33,0c3,1.73,5.67,3.22,11.21,3.22S241,18.9,244,17.17A26.07,26.07,0,0,1,258.68,13v7c-5.54,0-8.16,1.5-11.2,3.23A26.16,26.16,0,0,1,232.81,27.39Z" transform="translate(0 0)"/><path class="cls-1" d="M232.81,39.85a26,26,0,0,1-14.67-4.15c-3-1.73-5.66-3.22-11.2-3.22S198.77,34,195.73,35.7a28,28,0,0,1-29.33,0c-3-1.73-5.66-3.22-11.2-3.22S147,34,144,35.7a28,28,0,0,1-29.34,0c-3-1.73-5.66-3.22-11.2-3.22S95.3,34,92.26,35.7a26,26,0,0,1-14.67,4.15A26,26,0,0,1,62.93,35.7c-3-1.73-5.66-3.22-11.2-3.22S43.57,34,40.53,35.7a26,26,0,0,1-14.66,4.15A26,26,0,0,1,11.2,35.7C8.16,34,5.54,32.48,0,32.48v-7a26.16,26.16,0,0,1,14.67,4.14c3,1.73,5.66,3.23,11.2,3.23s8.16-1.5,11.19-3.23a26.16,26.16,0,0,1,14.67-4.14,26.09,26.09,0,0,1,14.66,4.14c3,1.73,5.66,3.23,11.2,3.23s8.17-1.5,11.2-3.23a26.16,26.16,0,0,1,14.67-4.14,26.16,26.16,0,0,1,14.67,4.14c3,1.73,5.66,3.23,11.2,3.23s8.16-1.5,11.2-3.23a28,28,0,0,1,29.33,0c3,1.73,5.67,3.23,11.21,3.23s8.16-1.5,11.2-3.23a28,28,0,0,1,29.33,0c3,1.73,5.67,3.23,11.21,3.23s8.16-1.5,11.2-3.23a26.16,26.16,0,0,1,14.67-4.14v7c-5.54,0-8.16,1.49-11.2,3.22A26.07,26.07,0,0,1,232.81,39.85Z" transform="translate(0 0)"/><path class="cls-1" d="M232.81,52.59a26,26,0,0,1-14.67-4.15c-3-1.73-5.66-3.22-11.2-3.22s-8.17,1.49-11.21,3.22a28,28,0,0,1-29.33,0c-3-1.73-5.66-3.22-11.2-3.22S147,46.71,144,48.44a28,28,0,0,1-29.34,0c-3-1.73-5.66-3.22-11.2-3.22s-8.16,1.49-11.2,3.22a26,26,0,0,1-14.67,4.15,26,26,0,0,1-14.66-4.15c-3-1.73-5.66-3.22-11.2-3.22s-8.16,1.49-11.2,3.22a26,26,0,0,1-14.66,4.15A26,26,0,0,1,11.2,48.44c-3-1.73-5.66-3.22-11.2-3.22v-7a26.16,26.16,0,0,1,14.67,4.14c3,1.73,5.66,3.23,11.2,3.23s8.16-1.5,11.19-3.23a26.16,26.16,0,0,1,14.67-4.14,26.09,26.09,0,0,1,14.66,4.14c3,1.73,5.66,3.23,11.2,3.23s8.17-1.5,11.2-3.23a26.16,26.16,0,0,1,14.67-4.14,26.16,26.16,0,0,1,14.67,4.14c3,1.73,5.66,3.23,11.2,3.23s8.16-1.5,11.2-3.23a28,28,0,0,1,29.33,0c3,1.73,5.67,3.23,11.21,3.23s8.16-1.5,11.2-3.23a28,28,0,0,1,29.33,0c3,1.73,5.67,3.23,11.21,3.23s8.16-1.5,11.2-3.23a26.16,26.16,0,0,1,14.67-4.14v7c-5.54,0-8.16,1.49-11.2,3.22A26.07,26.07,0,0,1,232.81,52.59Z" transform="translate(0 0)"/></svg>